<?xml version="1.0" standalone="no"?>
<!DOCTYPE svg PUBLIC "-//W3C//DTD SVG 20010904//EN"
 "http://www.w3.org/TR/2001/REC-SVG-20010904/DTD/svg10.dtd">
<svg version="1.0" xmlns="http://www.w3.org/2000/svg"
 width="300.000000pt" height="300.000000pt" viewBox="0 0 300.000000 300.000000"
 preserveAspectRatio="xMidYMid meet">
<metadata>
Created by potrace 1.10, written by Peter Selinger 2001-2011
</metadata>
<g transform="translate(0.000000,300.000000) scale(0.100000,-0.100000)"
fill="#000000" stroke="none">
<path d="M550 1650 l0 -360 305 0 305 0 0 360 0 360 -305 0 -305 0 0 -360z
m565 298 c3 -13 4 -156 3 -318 -3 -253 -5 -295 -18 -295 -9 0 -17 13 -20 35
-4 19 -39 85 -78 146 -40 61 -72 117 -72 125 0 8 6 24 14 35 24 33 86 191 86
217 0 13 -9 32 -20 42 -18 17 -21 17 -51 -1 -18 -11 -43 -39 -55 -64 -13 -25
-30 -58 -38 -73 l-16 -28 -27 31 c-24 27 -32 30 -54 22 -49 -19 -58 -47 -65
-219 l-7 -159 32 -32 c18 -18 41 -32 51 -32 24 0 50 37 50 70 1 59 17 53 64
-24 26 -41 45 -80 41 -86 -7 -11 -301 -15 -329 -4 -14 5 -16 42 -16 313 0 169
3 311 7 314 3 4 120 7 259 7 l254 0 5 -22z m-105 -37 c0 -6 -4 -12 -9 -15 -5
-3 -12 -18 -16 -33 -3 -16 -29 -74 -56 -130 l-50 -102 87 -131 c68 -104 84
-134 73 -141 -23 -15 -56 -10 -64 9 -8 22 -135 222 -141 222 -2 0 -12 -8 -23
-19 -15 -15 -18 -32 -17 -90 0 -39 -1 -71 -4 -71 -3 0 -17 10 -31 23 l-25 22
9 162 c9 145 12 162 29 166 10 3 21 7 25 9 7 4 5 -138 -3 -164 -11 -36 12 -16
49 42 22 33 54 93 71 134 18 42 44 84 57 95 26 22 39 26 39 12z"/>
<path d="M1304 1590 c-65 -26 -74 -142 -15 -187 20 -15 85 -17 112 -3 10 6 26
24 34 40 48 93 -35 189 -131 150z m86 -40 c34 -34 23 -107 -20 -130 -43 -23
-97 36 -83 92 14 56 65 76 103 38z"/>
<path d="M1461 1593 c2 -5 22 -52 43 -106 57 -142 57 -141 153 101 3 7 -3 12
-15 12 -15 0 -24 -14 -40 -57 -11 -32 -24 -71 -28 -86 -3 -15 -9 -26 -11 -23
-3 3 -17 40 -32 83 -22 65 -30 79 -50 81 -13 2 -22 0 -20 -5z"/>
<path d="M1731 1586 c-55 -31 -68 -114 -25 -165 23 -28 31 -31 85 -31 42 0 59
4 59 13 0 22 -10 26 -36 17 -32 -13 -79 5 -93 36 -6 14 -11 27 -11 30 0 3 34
4 75 2 73 -3 75 -2 75 20 0 72 -67 112 -129 78z m83 -38 c24 -34 20 -38 -39
-38 -59 0 -70 13 -39 44 22 23 60 20 78 -6z"/>
<path d="M1909 1596 c-2 -2 -3 -50 -1 -105 3 -90 5 -101 22 -101 16 0 18 7 14
58 -6 66 10 105 44 110 14 2 22 10 22 23 0 24 -25 24 -49 0 -19 -19 -19 -19
-24 0 -5 18 -18 25 -28 15z"/>
<path d="M2058 1593 c-10 -2 -18 -11 -18 -19 0 -11 9 -13 40 -8 26 4 45 2 55
-6 26 -22 17 -37 -26 -43 -69 -9 -104 -58 -75 -102 13 -19 25 -25 54 -25 21 0
43 5 50 12 9 9 12 9 12 0 0 -7 10 -12 21 -12 19 0 21 4 15 31 -3 17 -6 56 -6
85 0 81 -40 109 -122 87z m92 -123 c0 -39 -38 -67 -70 -50 -33 18 -22 52 20
67 49 17 50 16 50 -17z"/>
<path d="M2281 1587 c-62 -36 -69 -141 -12 -184 9 -7 42 -13 74 -13 50 0 57 2
57 20 0 23 0 23 -34 10 -34 -13 -80 4 -95 36 -14 32 -2 37 79 32 l60 -3 0 30
c-1 63 -73 104 -129 72z m83 -39 c9 -12 16 -26 16 -30 0 -5 -27 -8 -60 -8 -60
0 -61 0 -49 23 23 43 68 51 93 15z"/>
</g>
</svg>
